<?xml version="1.0" encoding="UTF-8" standalone="no"?>
<svg
   xmlns:dc="http://purl.org/dc/elements/1.1/"
   xmlns:cc="http://creativecommons.org/ns#"
   xmlns:rdf="http://www.w3.org/1999/02/22-rdf-syntax-ns#"
   xmlns:svg="http://www.w3.org/2000/svg"
   xmlns="http://www.w3.org/2000/svg"
   viewBox="0 0 400 400"
   height="400"
   width="400"
   xml:space="preserve"
   id="svg2"
   version="1.1"><metadata
     id="metadata8"><rdf:RDF><cc:Work
         rdf:about=""><dc:format>image/svg+xml</dc:format><dc:type
           rdf:resource="http://purl.org/dc/dcmitype/StillImage" /></cc:Work></rdf:RDF></metadata><defs
     id="defs6"><clipPath
       id="clipPath18"
       clipPathUnits="userSpaceOnUse"><path
         id="path16"
         d="M 0,300 H 300 V 0 H 0 Z" /></clipPath></defs><g
     transform="matrix(1.3333333,0,0,-1.3333333,0,400)"
     id="g10"><g
       id="g12"><g
         clip-path="url(#clipPath18)"
         id="g14"><g
           transform="translate(260,150)"
           id="g20"><path
             id="path22"
             style="fill:#f07d20;fill-opacity:1;fill-rule:nonzero;stroke:none"
             d="m 0,0 c 0,-60.751 -49.249,-110 -110,-110 -60.751,0 -110,49.249 -110,110 0,60.751 49.249,110 110,110 C -49.249,110 0,60.751 0,0" /></g><g
           transform="translate(169.4459,41.7138)"
           id="g24"><path
             id="path26"
             style="fill:#231f20;fill-opacity:1;fill-rule:nonzero;stroke:none"
             d="m 0,0 9,26.067 c 25.127,8.718 45.055,28.647 53.773,53.773 l 26.067,9 C 80.784,43.676 45.164,8.056 0,0 m -127.732,88.84 26.067,-9 c 8.718,-25.126 28.647,-45.055 53.773,-53.773 l 9,-26.067 c -45.164,8.056 -80.784,43.676 -88.84,88.84 m 88.84,127.732 -9,-26.066 c -25.126,-8.718 -45.055,-28.647 -53.773,-53.774 l -26.067,-9 c 8.056,45.164 43.676,80.784 88.84,88.84 M -19.446,33.286 c -41.421,0 -75,33.579 -75,75 0,41.422 33.579,75 75,75 41.421,0 75,-33.578 75,-75 0,-41.421 -33.579,-75 -75,-75 m 108.286,94.446 -26.067,9 C 54.055,161.859 34.127,181.788 9,190.506 l -9,26.066 c 45.164,-8.056 80.784,-43.676 88.84,-88.84 m -24.847,63.993 c -22.288,22.287 -51.92,34.561 -83.439,34.561 -31.519,0 -61.151,-12.274 -83.439,-34.561 -22.287,-22.287 -34.561,-51.92 -34.561,-83.439 0,-31.519 12.274,-61.151 34.561,-83.438 22.288,-22.288 51.92,-34.562 83.439,-34.562 31.519,0 61.151,12.274 83.439,34.562 22.287,22.287 34.561,51.919 34.561,83.438 0,31.519 -12.274,61.152 -34.561,83.439" /></g><g
           transform="translate(147.1283,128.8328)"
           id="g28"><path
             id="path30"
             style="fill:#231f20;fill-opacity:1;fill-rule:nonzero;stroke:none"
             d="m 0,0 v 78.56 c 0,0.611 -0.496,1.107 -1.107,1.107 h -36.54 c -0.612,0 -1.108,-0.496 -1.108,-1.107 V -36.226 c 0,-0.611 0.496,-1.107 1.108,-1.107 h 81.038 c 0.611,0 1.107,0.496 1.107,1.107 v 34.011 c 0,0.612 -0.496,1.108 -1.107,1.108 H 1.107 C 0.496,-1.107 0,-0.612 0,0" /></g><g
           transform="translate(163.666,173.9009)"
           id="g32"><path
             id="path34"
             style="fill:#231f20;fill-opacity:1;fill-rule:nonzero;stroke:none"
             d="m 0,0 c -0.762,0.033 -1.512,-0.255 -2.055,-0.8 -0.483,-0.484 -0.768,-1.132 -0.801,-1.832 -0.03,-0.732 0.228,-1.431 0.725,-1.969 0.498,-0.538 1.176,-0.849 1.906,-0.877 2.327,-0.094 4.513,-1.051 6.157,-2.695 1.91,-1.91 2.883,-4.553 2.669,-7.25 -0.059,-0.734 0.171,-1.445 0.648,-2.004 0.476,-0.556 1.14,-0.894 1.872,-0.951 0.072,-0.005 0.144,-0.008 0.214,-0.008 1.426,0 2.607,1.07 2.736,2.525 0.339,4.305 -1.214,8.521 -4.26,11.567 C 7.187,-1.67 3.7,-0.145 0,0" /></g><g
           transform="translate(163.5664,185.3223)"
           id="g36"><path
             id="path38"
             style="fill:#231f20;fill-opacity:1;fill-rule:nonzero;stroke:none"
             d="m 0,0 c -0.774,0.026 -1.459,-0.266 -1.993,-0.8 -0.501,-0.5 -0.787,-1.17 -0.806,-1.894 -0.018,-1.509 1.191,-2.759 2.695,-2.785 5.378,-0.104 10.429,-2.25 14.223,-6.044 4.06,-4.06 6.257,-9.679 6.028,-15.418 -0.029,-0.732 0.229,-1.433 0.728,-1.97 0.497,-0.537 1.175,-0.849 1.903,-0.878 0.042,-0.002 0.084,-0.003 0.125,-0.003 0.679,0 1.326,0.253 1.836,0.721 0.546,0.501 0.863,1.181 0.892,1.917 v 0 c 0.286,7.262 -2.496,14.373 -7.633,19.509 C 13.188,-2.834 6.794,-0.119 0,0" /></g><g
           transform="translate(189.8311,185.9448)"
           id="g40"><path
             id="path42"
             style="fill:#231f20;fill-opacity:1;fill-rule:nonzero;stroke:none"
             d="m 0,0 c -7.021,7.021 -16.356,10.953 -26.289,11.07 h -0.03 c -0.732,0 -1.419,-0.284 -1.939,-0.803 -0.512,-0.511 -0.796,-1.19 -0.803,-1.907 -0.009,-0.732 0.267,-1.424 0.78,-1.948 0.511,-0.523 1.197,-0.817 1.931,-0.827 8.488,-0.099 16.468,-3.46 22.472,-9.464 6.336,-6.336 9.693,-14.759 9.453,-23.719 -0.041,-1.511 1.155,-2.775 2.673,-2.818 0.019,0 0.037,0 0.056,0 1.482,0 2.714,1.185 2.757,2.668 C 11.337,-17.263 7.409,-7.409 0,0" /></g><g
           transform="translate(131.7753,109.7358)"
           id="g44"><path
             id="path46"
             style="fill:#ffffff;fill-opacity:1;fill-rule:nonzero;stroke:none"
             d="m 0,0 c 0,1.492 -0.242,2.729 -0.728,3.711 -0.484,0.982 -1.131,1.766 -1.939,2.35 -0.809,0.584 -1.729,1.001 -2.761,1.25 -1.032,0.248 -2.095,0.373 -3.188,0.373 h -3.171 V -7.758 h 3.021 c 1.144,0 2.244,0.13 3.302,0.391 1.056,0.261 1.988,0.69 2.797,1.287 0.808,0.597 1.455,1.393 1.939,2.387 C -0.242,-2.699 0,-1.468 0,0 m 6.638,0 c 0,-2.313 -0.429,-4.308 -1.285,-5.987 -0.858,-1.678 -1.99,-3.058 -3.395,-4.14 -1.405,-1.082 -2.99,-1.878 -4.756,-2.388 -1.765,-0.509 -3.556,-0.764 -5.371,-0.764 h -9.847 V 13.13 h 9.549 c 1.865,0 3.705,-0.218 5.52,-0.653 1.815,-0.435 3.432,-1.156 4.849,-2.163 C 3.32,9.306 4.463,7.957 5.334,6.266 6.203,4.575 6.638,2.487 6.638,0" /></g><g
           transform="translate(156.5053,114.7712)"
           id="g48"><path
             id="path50"
             style="fill:#ffffff;fill-opacity:1;fill-rule:nonzero;stroke:none"
             d="M 0,0 C 0,0.621 -0.132,1.125 -0.395,1.511 -0.656,1.896 -0.994,2.195 -1.406,2.406 -1.819,2.617 -2.281,2.76 -2.793,2.835 -3.305,2.91 -3.798,2.947 -4.274,2.947 h -3.41 v -6.155 h 3.036 c 0.524,0 1.062,0.043 1.612,0.131 0.549,0.087 1.049,0.242 1.5,0.466 0.449,0.224 0.818,0.547 1.105,0.97 C -0.144,-1.218 0,-0.671 0,0 m 0.261,-18.314 -5.733,10.481 h -2.176 v -10.481 h -6.228 V 8.094 h 10.071 c 1.269,0 2.506,-0.13 3.712,-0.391 C 1.113,7.442 2.194,7 3.151,6.379 4.108,5.757 4.873,4.936 5.446,3.917 6.018,2.897 6.304,1.629 6.304,0.112 6.304,-1.678 5.818,-3.183 4.849,-4.401 3.879,-5.62 2.536,-6.49 0.82,-7.012 l 6.9,-11.302 z" /></g><g
           transform="translate(182.2345,116.0021)"
           id="g52"><path
             id="path54"
             style="fill:#ffffff;fill-opacity:1;fill-rule:nonzero;stroke:none"
             d="M 0,0 C -0.546,0.696 -1.261,1.25 -2.143,1.66 -3.027,2.07 -3.879,2.276 -4.699,2.276 -5.122,2.276 -5.551,2.238 -5.986,2.164 -6.421,2.089 -6.814,1.946 -7.162,1.735 -7.51,1.523 -7.801,1.25 -8.038,0.914 -8.275,0.578 -8.392,0.149 -8.392,-0.373 c 0,-0.448 0.093,-0.82 0.279,-1.119 0.188,-0.298 0.461,-0.56 0.822,-0.783 0.36,-0.224 0.789,-0.429 1.287,-0.615 0.496,-0.187 1.056,-0.38 1.677,-0.579 0.897,-0.298 1.828,-0.628 2.799,-0.988 0.969,-0.361 1.852,-0.84 2.647,-1.436 0.795,-0.597 1.455,-1.337 1.977,-2.219 0.522,-0.884 0.783,-1.984 0.783,-3.302 0,-1.517 -0.279,-2.829 -0.837,-3.935 -0.561,-1.107 -1.314,-2.021 -2.259,-2.742 -0.945,-0.721 -2.026,-1.255 -3.244,-1.604 -1.218,-0.348 -2.475,-0.522 -3.768,-0.522 -1.89,0 -3.717,0.33 -5.482,0.989 -1.767,0.658 -3.234,1.597 -4.402,2.816 l 4.177,4.252 c 0.648,-0.796 1.498,-1.461 2.556,-1.995 1.057,-0.535 2.107,-0.802 3.151,-0.802 0.472,0 0.933,0.049 1.38,0.149 0.447,0.099 0.84,0.261 1.176,0.485 0.336,0.223 0.603,0.522 0.801,0.895 0.199,0.373 0.3,0.82 0.3,1.343 0,0.497 -0.126,0.919 -0.375,1.268 -0.248,0.348 -0.603,0.665 -1.062,0.951 -0.461,0.286 -1.032,0.547 -1.716,0.784 -0.684,0.235 -1.461,0.49 -2.331,0.764 -0.846,0.273 -1.674,0.597 -2.481,0.97 -0.808,0.373 -1.528,0.851 -2.164,1.436 -0.633,0.584 -1.143,1.293 -1.528,2.126 -0.386,0.833 -0.578,1.847 -0.578,3.04 0,1.467 0.297,2.723 0.894,3.767 0.597,1.045 1.38,1.903 2.35,2.575 0.971,0.671 2.064,1.162 3.282,1.473 1.218,0.31 2.451,0.466 3.693,0.466 1.492,0 3.016,-0.274 4.57,-0.82 C 1.536,6.167 2.898,5.359 4.066,4.29 Z" /></g><g
           transform="translate(114.1606,202.3682)"
           id="g56"><path
             id="path58"
             style="fill:#ffffff;fill-opacity:1;fill-rule:nonzero;stroke:none"
             d="M 0,0 H 26.408 V -6.416 H 5.558 v -10.22 H 0 Z" /></g><g
           transform="translate(133.5197,169.5925)"
           id="g60"><path
             id="path62"
             style="fill:#ffffff;fill-opacity:1;fill-rule:nonzero;stroke:none"
             d="m 0,0 -9.064,3.357 v -6.639 z m -19.359,-7.087 5.185,2.051 V 5.185 l -5.185,1.939 v 6.938 L 7.049,2.984 v -6.192 l -26.408,-10.966 z" /></g><g
           transform="translate(114.1606,135.3916)"
           id="g64"><path
             id="path66"
             style="fill:#ffffff;fill-opacity:1;fill-rule:nonzero;stroke:none"
             d="m 0,0 17.27,10.631 v 0.112 L 0,10.594 v 6.192 H 26.408 V 9.512 L 9.176,-1.082 v -0.111 l 17.232,0.149 V -7.236 L 0,-7.236 Z" /></g><g
           transform="translate(245.8065,158.1821)"
           id="g68"><path
             id="path70"
             style="fill:#ffffff;fill-opacity:1;fill-rule:evenodd;stroke:none"
             d="m 0,0 c -4.599,0 -8.328,0.756 -8.328,1.689 0,0.932 3.729,1.688 8.328,1.688 4.599,0 8.328,-0.756 8.328,-1.688 C 8.328,0.756 4.599,0 0,0 M 10.69,3.112 H 10.681 C 10.674,3.057 10.65,3.004 10.632,2.95 10.081,4.395 5.617,5.522 0.19,5.522 c -5.426,0 -9.89,-1.127 -10.441,-2.572 -0.018,0.054 -0.043,0.108 -0.05,0.162 h -0.009 v -5.548 h 0.009 c -0.004,-0.033 -0.009,-0.066 -0.009,-0.099 0,-1.587 4.701,-2.873 10.5,-2.873 5.799,0 10.5,1.286 10.5,2.873 0,0.033 -0.005,0.066 -0.009,0.099 H 10.69 Z M 0.19,-8.011 c -5.677,0 -10.299,1.233 -10.491,2.774 h -0.009 v -5.548 h 0.009 c -0.004,-0.033 -0.009,-0.066 -0.009,-0.099 0,-1.587 4.701,-2.873 10.5,-2.873 5.799,0 10.5,1.286 10.5,2.873 0,0.033 -0.005,0.066 -0.009,0.099 h 0.009 v 5.548 H 10.681 C 10.49,-6.778 5.868,-8.011 0.19,-8.011 m 0,-8.172 c -5.677,0 -10.299,1.233 -10.491,2.773 h -0.009 v -5.548 h 0.009 c -0.004,-0.032 -0.009,-0.065 -0.009,-0.099 0,-1.586 4.701,-2.873 10.5,-2.873 5.799,0 10.5,1.287 10.5,2.873 0,0.034 -0.005,0.067 -0.009,0.099 h 0.009 v 5.548 H 10.681 C 10.49,-14.95 5.868,-16.183 0.19,-16.183" /></g><g
           transform="translate(141.7784,51.2284)"
           id="g72"><path
             id="path74"
             style="fill:#ffffff;fill-opacity:1;fill-rule:nonzero;stroke:none"
             d="M 0,0 C -2.55,-0.036 -4.645,2.001 -4.682,4.552 -4.717,7.101 -2.68,9.197 -0.13,9.232 2.419,9.269 4.516,7.231 4.551,4.681 4.587,2.132 2.549,0.036 0,0 M 7.341,2.527 10.212,3.478 10.176,5.979 7.28,6.909 C 7.12,7.423 6.904,7.913 6.645,8.375 L 7.961,11.123 6.168,12.866 3.501,11.432 C 3.033,11.677 2.538,11.88 2.02,12.025 l -1.011,2.867 -2.5,-0.035 -0.87,-2.895 C -2.882,11.8 -3.377,11.58 -3.844,11.316 l -2.729,1.371 -1.743,-1.793 1.414,-2.753 C -7.137,7.685 -7.331,7.205 -7.472,6.702 l -2.869,-1.011 0.036,-2.501 2.896,-0.87 c 0.16,-0.512 0.375,-1 0.632,-1.459 l -1.359,-2.706 1.792,-1.744 2.709,1.392 c 0.468,-0.247 0.963,-0.448 1.481,-0.594 l 0.951,-2.869 2.501,0.035 0.929,2.894 c 0.507,0.158 0.991,0.37 1.447,0.624 L 6.396,-3.41 8.139,-1.617 6.727,1.008 c 0.255,0.479 0.464,0.987 0.614,1.519" /></g><g
           transform="translate(161.8276,48.4402)"
           id="g76"><path
             id="path78"
             style="fill:#ffffff;fill-opacity:1;fill-rule:nonzero;stroke:none"
             d="m 0,0 c -0.638,-1.84 -2.647,-2.815 -4.487,-2.176 -1.841,0.638 -2.815,2.647 -2.177,4.487 0.638,1.84 2.648,2.815 4.488,2.176 C -0.336,3.85 0.638,1.84 0,0 M 2.54,0.889 C 2.559,1.3 2.531,1.708 2.466,2.107 L 4.126,3.738 3.292,5.457 1.004,5.121 C 0.732,5.419 0.429,5.693 0.095,5.933 L 0.116,8.255 -1.689,8.881 -3.067,7.029 C -3.484,7.048 -3.897,7.019 -4.301,6.951 L -5.903,8.646 -7.622,7.812 -7.324,5.467 C -7.611,5.201 -7.875,4.906 -8.108,4.582 l -2.323,0.021 -0.626,-1.805 1.853,-1.379 C -9.222,1.01 -9.195,0.604 -9.13,0.207 l -1.681,-1.59 0.834,-1.718 2.307,0.293 c 0.272,-0.299 0.575,-0.572 0.909,-0.812 l -0.064,-2.308 1.805,-0.626 1.421,1.836 c 0.405,-0.018 0.807,0.008 1.201,0.072 l 1.616,-1.645 1.718,0.834 -0.33,2.253 c 0.308,0.277 0.59,0.587 0.836,0.931 l 2.31,-0.065 0.626,1.805 z" /></g><g
           transform="translate(64.895,157.2567)"
           id="g80"><path
             id="path82"
             style="fill:#ffffff;fill-opacity:1;fill-rule:nonzero;stroke:none"
             d="M 0,0 C -1.029,-0.976 -2.661,-0.933 -3.637,0.096 -4.613,1.125 -4.57,2.757 -3.541,3.733 -2.512,4.709 -0.88,4.666 0.096,3.637 1.072,2.608 1.029,0.976 0,0 m -0.39,-14.762 c 0.977,-1.029 0.934,-2.66 -0.096,-3.636 -1.029,-0.977 -2.66,-0.934 -3.636,0.096 -0.976,1.029 -0.933,2.66 0.096,3.636 1.029,0.976 2.66,0.933 3.636,-0.096 M -22.035,0.582 c -0.976,1.029 -0.933,2.66 0.096,3.636 1.029,0.976 2.66,0.933 3.637,-0.096 0.976,-1.029 0.933,-2.66 -0.096,-3.636 -1.03,-0.977 -2.661,-0.934 -3.637,0.096 m 3.151,-18.495 c -1.029,-0.976 -2.661,-0.933 -3.637,0.096 -0.976,1.029 -0.933,2.661 0.096,3.637 1.029,0.976 2.661,0.933 3.637,-0.096 0.976,-1.029 0.933,-2.661 -0.096,-3.637 M -4.641,5.427 C -5.93,4.383 -6.49,2.816 -6.308,1.317 c 0.153,-1.263 -0.226,-2.535 -1.156,-3.405 -0.08,-0.075 -0.158,-0.148 -0.233,-0.22 -0.824,-0.781 -2.185,-1.052 -3.433,-1.024 -1.246,0.027 -2.687,0.525 -3.38,1.172 -0.009,0.008 -0.018,0.017 -0.027,0.026 -1.002,0.943 -1.366,2.343 -1.129,3.698 0.26,1.487 -0.217,3.081 -1.448,4.192 -1.707,1.539 -4.395,1.537 -6.106,0.003 -1.925,-1.727 -2.035,-4.69 -0.267,-6.554 1.032,-1.089 2.472,-1.556 3.855,-1.393 1.306,0.155 2.616,-0.237 3.521,-1.191 l 0.024,-0.025 c 0.852,-0.898 1.144,-2.356 1.117,-3.603 -0.028,-1.246 -0.57,-2.809 -1.346,-3.545 -0.776,-0.736 -2.266,-1.217 -3.551,-0.992 -1.487,0.26 -3.081,-0.216 -4.191,-1.448 -1.539,-1.706 -1.538,-4.394 -0.004,-6.105 1.727,-1.926 4.691,-2.036 6.555,-0.268 1.088,1.033 1.556,2.472 1.392,3.855 -0.154,1.306 0.237,2.616 1.191,3.521 l 0.026,0.024 c 0.738,0.7 2.356,1.145 3.603,1.117 1.246,-0.027 2.402,-0.455 3.381,-1.173 l 0.164,-0.173 c 0.898,-0.946 1.216,-2.265 0.991,-3.55 -0.26,-1.487 0.217,-3.081 1.448,-4.192 1.707,-1.539 4.395,-1.537 6.106,-0.003 1.926,1.727 2.035,4.69 0.267,6.554 -1.032,1.088 -2.472,1.556 -3.854,1.392 -1.306,-0.154 -2.616,0.238 -3.521,1.192 l -0.025,0.026 c -0.823,0.868 -1.144,2.355 -1.117,3.602 0.028,1.246 0.445,2.691 1.173,3.381 l 0.158,0.149 c 0.954,0.905 2.282,1.228 3.578,1.005 1.373,-0.237 2.835,0.154 3.923,1.186 1.864,1.769 1.911,4.734 0.079,6.56 -1.628,1.622 -4.312,1.766 -6.097,0.319" /></g><g
           transform="translate(150.0629,244.4926)"
           id="g84"><path
             id="path86"
             style="fill:#ffffff;fill-opacity:1;fill-rule:nonzero;stroke:none"
             d="M 0,0 -2.383,1.19 -5.08,-2.176 -19.063,-9.281 c 0,0 0.061,5.788 0.074,6.986 0.012,1.198 0.208,2.011 1.226,2.715 1.244,0.861 10.692,7.253 12.675,8.621 2.607,1.799 2.377,5.195 5.238,5.164 2.861,-0.03 2.559,-3.42 5.127,-5.273 1.954,-1.41 11.265,-8 12.491,-8.887 1.002,-0.725 1.181,-1.543 1.168,-2.74 -0.012,-1.198 -0.073,-6.987 -0.073,-6.987 l -13.83,7.4 -2.625,3.421 z" /></g></g></g></g></svg>