<?xml version="1.0" encoding="UTF-8" standalone="no"?>
<svg
   xmlns:dc="http://purl.org/dc/elements/1.1/"
   xmlns:cc="http://creativecommons.org/ns#"
   xmlns:rdf="http://www.w3.org/1999/02/22-rdf-syntax-ns#"
   xmlns:svg="http://www.w3.org/2000/svg"
   xmlns="http://www.w3.org/2000/svg"
   viewBox="0 0 771.42401 400"
   height="400"
   width="771.42401"
   xml:space="preserve"
   id="svg2"
   version="1.1"><metadata
     id="metadata8"><rdf:RDF><cc:Work
         rdf:about=""><dc:format>image/svg+xml</dc:format><dc:type
           rdf:resource="http://purl.org/dc/dcmitype/StillImage" /></cc:Work></rdf:RDF></metadata><defs
     id="defs6"><clipPath
       id="clipPath18"
       clipPathUnits="userSpaceOnUse"><path
         id="path16"
         d="M 0,300 H 578.568 V 0 H 0 Z" /></clipPath></defs><g
     transform="matrix(1.3333333,0,0,-1.3333333,0,400)"
     id="g10"><g
       id="g12"><g
         clip-path="url(#clipPath18)"
         id="g14"><g
           transform="translate(260,150)"
           id="g20"><path
             id="path22"
             style="fill:#f07d20;fill-opacity:1;fill-rule:nonzero;stroke:none"
             d="m 0,0 c 0,-60.751 -49.249,-110 -110,-110 -60.751,0 -110,49.249 -110,110 0,60.751 49.249,110 110,110 C -49.249,110 0,60.751 0,0" /></g><g
           transform="translate(169.4459,41.7138)"
           id="g24"><path
             id="path26"
             style="fill:#231f20;fill-opacity:1;fill-rule:nonzero;stroke:none"
             d="m 0,0 9,26.067 c 25.127,8.718 45.055,28.647 53.773,53.773 l 26.067,9 C 80.784,43.676 45.164,8.056 0,0 m -127.732,88.84 26.067,-9 c 8.718,-25.126 28.647,-45.055 53.773,-53.773 l 9,-26.067 c -45.164,8.056 -80.784,43.676 -88.84,88.84 m 88.84,127.732 -9,-26.066 c -25.126,-8.718 -45.055,-28.647 -53.773,-53.774 l -26.067,-9 c 8.056,45.164 43.676,80.784 88.84,88.84 M -19.446,33.286 c -41.421,0 -75,33.579 -75,75 0,41.422 33.579,75 75,75 41.421,0 75,-33.578 75,-75 0,-41.421 -33.579,-75 -75,-75 m 108.286,94.446 -26.067,9 C 54.055,161.859 34.127,181.788 9,190.506 l -9,26.066 c 45.164,-8.056 80.784,-43.676 88.84,-88.84 m -24.847,63.993 c -22.288,22.287 -51.92,34.561 -83.439,34.561 -31.519,0 -61.151,-12.274 -83.439,-34.561 -22.287,-22.287 -34.561,-51.92 -34.561,-83.439 0,-31.519 12.274,-61.151 34.561,-83.438 22.288,-22.288 51.92,-34.562 83.439,-34.562 31.519,0 61.151,12.274 83.439,34.562 22.287,22.287 34.561,51.919 34.561,83.438 0,31.519 -12.274,61.152 -34.561,83.439" /></g><g
           transform="translate(147.1283,128.8328)"
           id="g28"><path
             id="path30"
             style="fill:#231f20;fill-opacity:1;fill-rule:nonzero;stroke:none"
             d="m 0,0 v 78.56 c 0,0.611 -0.496,1.107 -1.107,1.107 h -36.54 c -0.612,0 -1.108,-0.496 -1.108,-1.107 V -36.226 c 0,-0.611 0.496,-1.107 1.108,-1.107 h 81.038 c 0.611,0 1.107,0.496 1.107,1.107 v 34.011 c 0,0.612 -0.496,1.108 -1.107,1.108 H 1.107 C 0.496,-1.107 0,-0.612 0,0" /></g><g
           transform="translate(163.666,173.9009)"
           id="g32"><path
             id="path34"
             style="fill:#231f20;fill-opacity:1;fill-rule:nonzero;stroke:none"
             d="m 0,0 c -0.762,0.033 -1.512,-0.255 -2.055,-0.8 -0.483,-0.484 -0.768,-1.132 -0.801,-1.832 -0.03,-0.732 0.228,-1.431 0.725,-1.969 0.498,-0.538 1.176,-0.849 1.906,-0.877 2.327,-0.094 4.513,-1.051 6.157,-2.695 1.91,-1.91 2.883,-4.553 2.669,-7.25 -0.059,-0.734 0.171,-1.445 0.648,-2.004 0.476,-0.556 1.14,-0.894 1.872,-0.951 0.072,-0.005 0.144,-0.008 0.214,-0.008 1.426,0 2.607,1.07 2.736,2.525 0.339,4.305 -1.214,8.521 -4.26,11.567 C 7.187,-1.67 3.7,-0.145 0,0" /></g><g
           transform="translate(163.5664,185.3223)"
           id="g36"><path
             id="path38"
             style="fill:#231f20;fill-opacity:1;fill-rule:nonzero;stroke:none"
             d="m 0,0 c -0.774,0.026 -1.459,-0.266 -1.993,-0.8 -0.501,-0.5 -0.787,-1.17 -0.806,-1.894 -0.018,-1.509 1.191,-2.759 2.695,-2.785 5.378,-0.104 10.429,-2.25 14.223,-6.044 4.06,-4.06 6.257,-9.679 6.028,-15.418 -0.029,-0.732 0.229,-1.433 0.728,-1.97 0.497,-0.537 1.175,-0.849 1.903,-0.878 0.042,-0.002 0.084,-0.003 0.125,-0.003 0.679,0 1.326,0.253 1.836,0.721 0.546,0.501 0.863,1.181 0.892,1.917 v 0 c 0.286,7.262 -2.496,14.373 -7.633,19.509 C 13.188,-2.834 6.794,-0.119 0,0" /></g><g
           transform="translate(189.8311,185.9448)"
           id="g40"><path
             id="path42"
             style="fill:#231f20;fill-opacity:1;fill-rule:nonzero;stroke:none"
             d="m 0,0 c -7.021,7.021 -16.356,10.953 -26.289,11.07 h -0.03 c -0.732,0 -1.419,-0.284 -1.939,-0.803 -0.512,-0.511 -0.796,-1.19 -0.803,-1.907 -0.009,-0.732 0.267,-1.424 0.78,-1.948 0.511,-0.523 1.197,-0.817 1.931,-0.827 8.488,-0.099 16.468,-3.46 22.472,-9.464 6.336,-6.336 9.693,-14.759 9.453,-23.719 -0.041,-1.511 1.155,-2.775 2.673,-2.818 0.019,0 0.037,0 0.056,0 1.482,0 2.714,1.185 2.757,2.668 C 11.337,-17.263 7.409,-7.409 0,0" /></g><g
           transform="translate(131.7753,109.7358)"
           id="g44"><path
             id="path46"
             style="fill:#ffffff;fill-opacity:1;fill-rule:nonzero;stroke:none"
             d="m 0,0 c 0,1.492 -0.242,2.729 -0.728,3.711 -0.484,0.982 -1.131,1.766 -1.939,2.35 -0.809,0.584 -1.729,1.001 -2.761,1.25 -1.032,0.248 -2.095,0.373 -3.188,0.373 h -3.171 V -7.758 h 3.021 c 1.144,0 2.244,0.13 3.302,0.391 1.056,0.261 1.988,0.69 2.797,1.287 0.808,0.597 1.455,1.393 1.939,2.387 C -0.242,-2.699 0,-1.468 0,0 m 6.638,0 c 0,-2.313 -0.429,-4.308 -1.285,-5.987 -0.858,-1.678 -1.99,-3.058 -3.395,-4.14 -1.405,-1.082 -2.99,-1.878 -4.756,-2.388 -1.765,-0.509 -3.556,-0.764 -5.371,-0.764 h -9.847 V 13.13 h 9.549 c 1.865,0 3.705,-0.218 5.52,-0.653 1.815,-0.435 3.432,-1.156 4.849,-2.163 C 3.32,9.306 4.463,7.957 5.334,6.266 6.203,4.575 6.638,2.487 6.638,0" /></g><g
           transform="translate(156.5053,114.7712)"
           id="g48"><path
             id="path50"
             style="fill:#ffffff;fill-opacity:1;fill-rule:nonzero;stroke:none"
             d="M 0,0 C 0,0.621 -0.132,1.125 -0.395,1.511 -0.656,1.896 -0.994,2.195 -1.406,2.406 -1.819,2.617 -2.281,2.76 -2.793,2.835 -3.305,2.91 -3.798,2.947 -4.274,2.947 h -3.41 v -6.155 h 3.036 c 0.524,0 1.062,0.043 1.612,0.131 0.549,0.087 1.049,0.242 1.5,0.466 0.449,0.224 0.818,0.547 1.105,0.97 C -0.144,-1.218 0,-0.671 0,0 m 0.261,-18.314 -5.733,10.481 h -2.176 v -10.481 h -6.228 V 8.094 h 10.071 c 1.269,0 2.506,-0.13 3.712,-0.391 C 1.113,7.442 2.194,7 3.151,6.379 4.108,5.757 4.873,4.936 5.446,3.917 6.018,2.897 6.304,1.629 6.304,0.112 6.304,-1.678 5.818,-3.183 4.849,-4.401 3.879,-5.62 2.536,-6.49 0.82,-7.012 l 6.9,-11.302 z" /></g><g
           transform="translate(182.2345,116.0021)"
           id="g52"><path
             id="path54"
             style="fill:#ffffff;fill-opacity:1;fill-rule:nonzero;stroke:none"
             d="M 0,0 C -0.546,0.696 -1.261,1.25 -2.143,1.66 -3.027,2.07 -3.879,2.276 -4.699,2.276 -5.122,2.276 -5.551,2.238 -5.986,2.164 -6.421,2.089 -6.814,1.946 -7.162,1.735 -7.51,1.523 -7.801,1.25 -8.038,0.914 -8.275,0.578 -8.392,0.149 -8.392,-0.373 c 0,-0.448 0.093,-0.82 0.279,-1.119 0.188,-0.298 0.461,-0.56 0.822,-0.783 0.36,-0.224 0.789,-0.429 1.287,-0.615 0.496,-0.187 1.056,-0.38 1.677,-0.579 0.897,-0.298 1.828,-0.628 2.799,-0.988 0.969,-0.361 1.852,-0.84 2.647,-1.436 0.795,-0.597 1.455,-1.337 1.977,-2.219 0.522,-0.884 0.783,-1.984 0.783,-3.302 0,-1.517 -0.279,-2.829 -0.837,-3.935 -0.561,-1.107 -1.314,-2.021 -2.259,-2.742 -0.945,-0.721 -2.026,-1.255 -3.244,-1.604 -1.218,-0.348 -2.475,-0.522 -3.768,-0.522 -1.89,0 -3.717,0.33 -5.482,0.989 -1.767,0.658 -3.234,1.597 -4.402,2.816 l 4.177,4.252 c 0.648,-0.796 1.498,-1.461 2.556,-1.995 1.057,-0.535 2.107,-0.802 3.151,-0.802 0.472,0 0.933,0.049 1.38,0.149 0.447,0.099 0.84,0.261 1.176,0.485 0.336,0.223 0.603,0.522 0.801,0.895 0.199,0.373 0.3,0.82 0.3,1.343 0,0.497 -0.126,0.919 -0.375,1.268 -0.248,0.348 -0.603,0.665 -1.062,0.951 -0.461,0.286 -1.032,0.547 -1.716,0.784 -0.684,0.235 -1.461,0.49 -2.331,0.764 -0.846,0.273 -1.674,0.597 -2.481,0.97 -0.808,0.373 -1.528,0.851 -2.164,1.436 -0.633,0.584 -1.143,1.293 -1.528,2.126 -0.386,0.833 -0.578,1.847 -0.578,3.04 0,1.467 0.297,2.723 0.894,3.767 0.597,1.045 1.38,1.903 2.35,2.575 0.971,0.671 2.064,1.162 3.282,1.473 1.218,0.31 2.451,0.466 3.693,0.466 1.492,0 3.016,-0.274 4.57,-0.82 C 1.536,6.167 2.898,5.359 4.066,4.29 Z" /></g><g
           transform="translate(114.1606,202.3682)"
           id="g56"><path
             id="path58"
             style="fill:#ffffff;fill-opacity:1;fill-rule:nonzero;stroke:none"
             d="M 0,0 H 26.408 V -6.416 H 5.558 v -10.22 H 0 Z" /></g><g
           transform="translate(133.5197,169.5925)"
           id="g60"><path
             id="path62"
             style="fill:#ffffff;fill-opacity:1;fill-rule:nonzero;stroke:none"
             d="m 0,0 -9.064,3.357 v -6.639 z m -19.359,-7.087 5.185,2.051 V 5.185 l -5.185,1.939 v 6.938 L 7.049,2.984 v -6.192 l -26.408,-10.966 z" /></g><g
           transform="translate(114.1606,135.3916)"
           id="g64"><path
             id="path66"
             style="fill:#ffffff;fill-opacity:1;fill-rule:nonzero;stroke:none"
             d="m 0,0 17.27,10.631 v 0.112 L 0,10.594 v 6.192 H 26.408 V 9.512 L 9.176,-1.082 v -0.111 l 17.232,0.149 V -7.236 L 0,-7.236 Z" /></g><g
           transform="translate(245.8065,158.1821)"
           id="g68"><path
             id="path70"
             style="fill:#ffffff;fill-opacity:1;fill-rule:evenodd;stroke:none"
             d="m 0,0 c -4.599,0 -8.328,0.756 -8.328,1.689 0,0.932 3.729,1.688 8.328,1.688 4.599,0 8.328,-0.756 8.328,-1.688 C 8.328,0.756 4.599,0 0,0 M 10.69,3.112 H 10.681 C 10.674,3.057 10.65,3.004 10.632,2.95 10.081,4.395 5.617,5.522 0.19,5.522 c -5.426,0 -9.89,-1.127 -10.441,-2.572 -0.018,0.054 -0.043,0.108 -0.05,0.162 h -0.009 v -5.548 h 0.009 c -0.004,-0.033 -0.009,-0.066 -0.009,-0.099 0,-1.587 4.701,-2.873 10.5,-2.873 5.799,0 10.5,1.286 10.5,2.873 0,0.033 -0.005,0.066 -0.009,0.099 H 10.69 Z M 0.19,-8.011 c -5.677,0 -10.299,1.233 -10.491,2.774 h -0.009 v -5.548 h 0.009 c -0.004,-0.033 -0.009,-0.066 -0.009,-0.099 0,-1.587 4.701,-2.873 10.5,-2.873 5.799,0 10.5,1.286 10.5,2.873 0,0.033 -0.005,0.066 -0.009,0.099 h 0.009 v 5.548 H 10.681 C 10.49,-6.778 5.868,-8.011 0.19,-8.011 m 0,-8.172 c -5.677,0 -10.299,1.233 -10.491,2.773 h -0.009 v -5.548 h 0.009 c -0.004,-0.032 -0.009,-0.065 -0.009,-0.099 0,-1.586 4.701,-2.873 10.5,-2.873 5.799,0 10.5,1.287 10.5,2.873 0,0.034 -0.005,0.067 -0.009,0.099 h 0.009 v 5.548 H 10.681 C 10.49,-14.95 5.868,-16.183 0.19,-16.183" /></g><g
           transform="translate(141.7784,51.2284)"
           id="g72"><path
             id="path74"
             style="fill:#ffffff;fill-opacity:1;fill-rule:nonzero;stroke:none"
             d="M 0,0 C -2.55,-0.036 -4.645,2.001 -4.682,4.552 -4.717,7.101 -2.68,9.197 -0.13,9.232 2.419,9.269 4.516,7.231 4.551,4.681 4.587,2.132 2.549,0.036 0,0 M 7.341,2.527 10.212,3.478 10.176,5.979 7.28,6.909 C 7.12,7.423 6.904,7.913 6.645,8.375 L 7.961,11.123 6.168,12.866 3.501,11.432 C 3.033,11.677 2.538,11.88 2.02,12.025 l -1.011,2.867 -2.5,-0.035 -0.87,-2.895 C -2.882,11.8 -3.377,11.58 -3.844,11.316 l -2.729,1.371 -1.743,-1.793 1.414,-2.753 C -7.137,7.685 -7.331,7.205 -7.472,6.702 l -2.869,-1.011 0.036,-2.501 2.896,-0.87 c 0.16,-0.512 0.375,-1 0.632,-1.459 l -1.359,-2.706 1.792,-1.744 2.709,1.392 c 0.468,-0.247 0.963,-0.448 1.481,-0.594 l 0.951,-2.869 2.501,0.035 0.929,2.894 c 0.507,0.158 0.991,0.37 1.447,0.624 L 6.396,-3.41 8.139,-1.617 6.727,1.008 c 0.255,0.479 0.464,0.987 0.614,1.519" /></g><g
           transform="translate(161.8276,48.4402)"
           id="g76"><path
             id="path78"
             style="fill:#ffffff;fill-opacity:1;fill-rule:nonzero;stroke:none"
             d="m 0,0 c -0.638,-1.84 -2.647,-2.815 -4.487,-2.176 -1.841,0.638 -2.815,2.647 -2.177,4.487 0.638,1.84 2.648,2.815 4.488,2.176 C -0.336,3.85 0.638,1.84 0,0 M 2.54,0.889 C 2.559,1.3 2.531,1.708 2.466,2.107 L 4.126,3.738 3.292,5.457 1.004,5.121 C 0.732,5.419 0.429,5.693 0.095,5.933 L 0.116,8.255 -1.689,8.881 -3.067,7.029 C -3.484,7.048 -3.897,7.019 -4.301,6.951 L -5.903,8.646 -7.622,7.812 -7.324,5.467 C -7.611,5.201 -7.875,4.906 -8.108,4.582 l -2.323,0.021 -0.626,-1.805 1.853,-1.379 C -9.222,1.01 -9.195,0.604 -9.13,0.207 l -1.681,-1.59 0.834,-1.718 2.307,0.293 c 0.272,-0.299 0.575,-0.572 0.909,-0.812 l -0.064,-2.308 1.805,-0.626 1.421,1.836 c 0.405,-0.018 0.807,0.008 1.201,0.072 l 1.616,-1.645 1.718,0.834 -0.33,2.253 c 0.308,0.277 0.59,0.587 0.836,0.931 l 2.31,-0.065 0.626,1.805 z" /></g><g
           transform="translate(64.895,157.2567)"
           id="g80"><path
             id="path82"
             style="fill:#ffffff;fill-opacity:1;fill-rule:nonzero;stroke:none"
             d="M 0,0 C -1.029,-0.976 -2.661,-0.933 -3.637,0.096 -4.613,1.125 -4.57,2.757 -3.541,3.733 -2.512,4.709 -0.88,4.666 0.096,3.637 1.072,2.608 1.029,0.976 0,0 m -0.39,-14.762 c 0.977,-1.029 0.934,-2.66 -0.096,-3.636 -1.029,-0.977 -2.66,-0.934 -3.636,0.096 -0.976,1.029 -0.933,2.66 0.096,3.636 1.029,0.976 2.66,0.933 3.636,-0.096 M -22.035,0.582 c -0.976,1.029 -0.933,2.66 0.096,3.636 1.029,0.976 2.66,0.933 3.637,-0.096 0.976,-1.029 0.933,-2.66 -0.096,-3.636 -1.03,-0.977 -2.661,-0.934 -3.637,0.096 m 3.151,-18.495 c -1.029,-0.976 -2.661,-0.933 -3.637,0.096 -0.976,1.029 -0.933,2.661 0.096,3.637 1.029,0.976 2.661,0.933 3.637,-0.096 0.976,-1.029 0.933,-2.661 -0.096,-3.637 M -4.641,5.427 C -5.93,4.383 -6.49,2.816 -6.308,1.317 c 0.153,-1.263 -0.226,-2.535 -1.156,-3.405 -0.08,-0.075 -0.158,-0.148 -0.233,-0.22 -0.824,-0.781 -2.185,-1.052 -3.433,-1.024 -1.246,0.027 -2.687,0.525 -3.38,1.172 -0.009,0.008 -0.018,0.017 -0.027,0.026 -1.002,0.943 -1.366,2.343 -1.129,3.698 0.26,1.487 -0.217,3.081 -1.448,4.192 -1.707,1.539 -4.395,1.537 -6.106,0.003 -1.925,-1.727 -2.035,-4.69 -0.267,-6.554 1.032,-1.089 2.472,-1.556 3.855,-1.393 1.306,0.155 2.616,-0.237 3.521,-1.191 l 0.024,-0.025 c 0.852,-0.898 1.144,-2.356 1.117,-3.603 -0.028,-1.246 -0.57,-2.809 -1.346,-3.545 -0.776,-0.736 -2.266,-1.217 -3.551,-0.992 -1.487,0.26 -3.081,-0.216 -4.191,-1.448 -1.539,-1.706 -1.538,-4.394 -0.004,-6.105 1.727,-1.926 4.691,-2.036 6.555,-0.268 1.088,1.033 1.556,2.472 1.392,3.855 -0.154,1.306 0.237,2.616 1.191,3.521 l 0.026,0.024 c 0.738,0.7 2.356,1.145 3.603,1.117 1.246,-0.027 2.402,-0.455 3.381,-1.173 l 0.164,-0.173 c 0.898,-0.946 1.216,-2.265 0.991,-3.55 -0.26,-1.487 0.217,-3.081 1.448,-4.192 1.707,-1.539 4.395,-1.537 6.106,-0.003 1.926,1.727 2.035,4.69 0.267,6.554 -1.032,1.088 -2.472,1.556 -3.854,1.392 -1.306,-0.154 -2.616,0.238 -3.521,1.192 l -0.025,0.026 c -0.823,0.868 -1.144,2.355 -1.117,3.602 0.028,1.246 0.445,2.691 1.173,3.381 l 0.158,0.149 c 0.954,0.905 2.282,1.228 3.578,1.005 1.373,-0.237 2.835,0.154 3.923,1.186 1.864,1.769 1.911,4.734 0.079,6.56 -1.628,1.622 -4.312,1.766 -6.097,0.319" /></g><g
           transform="translate(150.0629,244.4926)"
           id="g84"><path
             id="path86"
             style="fill:#ffffff;fill-opacity:1;fill-rule:nonzero;stroke:none"
             d="M 0,0 -2.383,1.19 -5.08,-2.176 -19.063,-9.281 c 0,0 0.061,5.788 0.074,6.986 0.012,1.198 0.208,2.011 1.226,2.715 1.244,0.861 10.692,7.253 12.675,8.621 2.607,1.799 2.377,5.195 5.238,5.164 2.861,-0.03 2.559,-3.42 5.127,-5.273 1.954,-1.41 11.265,-8 12.491,-8.887 1.002,-0.725 1.181,-1.543 1.168,-2.74 -0.012,-1.198 -0.073,-6.987 -0.073,-6.987 l -13.83,7.4 -2.625,3.421 z" /></g><g
           transform="translate(295.2959,205.1558)"
           id="g88"><path
             id="path90"
             style="fill:#231f20;fill-opacity:1;fill-rule:nonzero;stroke:none"
             d="M 0,0 V 30.861 H 7.498 V 6.495 H 19.441 V 0 Z" /></g><path
           id="path92"
           style="fill:#231f20;fill-opacity:1;fill-rule:nonzero;stroke:none"
           d="m 324.893,205.156 h -4.098 v 20.661 h 4.098 z m 0.653,28.115 c 0,-0.756 -0.267,-1.381 -0.8,-1.875 -0.533,-0.494 -1.175,-0.74 -1.924,-0.74 -0.75,0 -1.384,0.254 -1.902,0.762 -0.52,0.508 -0.778,1.126 -0.778,1.853 0,0.755 0.258,1.387 0.778,1.896 0.518,0.508 1.152,0.763 1.902,0.763 0.749,0 1.391,-0.255 1.924,-0.763 0.533,-0.509 0.8,-1.141 0.8,-1.896" /><g
           transform="translate(335.7451,225.8169)"
           id="g94"><path
             id="path96"
             style="fill:#231f20;fill-opacity:1;fill-rule:nonzero;stroke:none"
             d="M 0,0 C 0.059,-0.523 0.102,-1.111 0.131,-1.765 0.16,-2.419 0.175,-2.964 0.175,-3.4 h 0.131 c 0.261,0.552 0.617,1.068 1.068,1.547 0.45,0.48 0.965,0.901 1.547,1.265 0.581,0.363 1.221,0.646 1.918,0.85 0.697,0.203 1.424,0.305 2.18,0.305 1.335,0 2.484,-0.226 3.443,-0.676 0.959,-0.451 1.758,-1.054 2.397,-1.808 0.639,-0.757 1.112,-1.643 1.417,-2.66 0.305,-1.017 0.457,-2.107 0.457,-3.269 v -12.815 h -4.096 v 11.464 c 0,0.843 -0.066,1.641 -0.197,2.397 -0.13,0.756 -0.371,1.424 -0.719,2.006 -0.349,0.58 -0.828,1.045 -1.439,1.394 -0.61,0.349 -1.394,0.524 -2.353,0.524 -1.628,0 -2.957,-0.619 -3.989,-1.853 C 0.908,-5.965 0.393,-7.614 0.393,-9.677 v -10.984 h -4.098 v 16.215 c 0,0.552 -0.015,1.264 -0.043,2.136 -0.029,0.872 -0.073,1.642 -0.131,2.31 z" /></g><g
           transform="translate(361.5937,216.8379)"
           id="g98"><path
             id="path100"
             style="fill:#231f20;fill-opacity:1;fill-rule:nonzero;stroke:none"
             d="m 0,0 h 0.131 l 8.675,8.979 h 5.492 L 4.621,-0.393 15.126,-11.682 H 9.459 L 0.131,-0.959 H 0 V -11.682 H -4.097 V 21.271 H 0 Z" /></g><g
           transform="translate(394.7217,217.3174)"
           id="g102"><path
             id="path104"
             style="fill:#231f20;fill-opacity:1;fill-rule:nonzero;stroke:none"
             d="M 0,0 C -0.029,0.813 -0.168,1.576 -0.414,2.288 -0.661,3 -1.024,3.618 -1.504,4.141 -1.983,4.664 -2.579,5.078 -3.291,5.383 -4.003,5.688 -4.839,5.841 -5.798,5.841 -6.669,5.841 -7.49,5.688 -8.26,5.383 -9.03,5.078 -9.698,4.664 -10.266,4.141 -10.832,3.618 -11.297,3 -11.66,2.288 -12.023,1.576 -12.234,0.813 -12.292,0 Z m 4.185,-1.657 v -0.697 c 0,-0.233 -0.015,-0.465 -0.044,-0.697 h -16.433 c 0.028,-0.867 0.225,-1.682 0.588,-2.446 0.363,-0.765 0.85,-1.429 1.461,-1.992 0.61,-0.562 1.314,-1.002 2.113,-1.32 0.8,-0.317 1.65,-0.476 2.551,-0.476 1.394,0 2.6,0.306 3.617,0.916 1.018,0.61 1.816,1.351 2.398,2.223 l 2.877,-2.311 c -1.105,-1.464 -2.405,-2.542 -3.902,-3.234 -1.497,-0.691 -3.16,-1.038 -4.99,-1.038 -1.569,0 -3.024,0.262 -4.359,0.785 -1.337,0.524 -2.485,1.257 -3.444,2.202 -0.959,0.944 -1.715,2.084 -2.266,3.421 -0.553,1.337 -0.829,2.819 -0.829,4.446 0,1.598 0.269,3.074 0.808,4.425 0.539,1.351 1.288,2.506 2.25,3.465 0.961,0.959 2.097,1.707 3.407,2.245 1.311,0.537 2.722,0.806 4.237,0.806 1.514,0 2.89,-0.247 4.129,-0.741 C -0.409,7.831 0.639,7.119 1.498,6.189 2.357,5.259 3.02,4.133 3.485,2.812 3.951,1.489 4.185,0 4.185,-1.657" /></g><g
           transform="translate(407.4492,215.5083)"
           id="g106"><path
             id="path108"
             style="fill:#231f20;fill-opacity:1;fill-rule:nonzero;stroke:none"
             d="m 0,0 c 0,-0.957 0.146,-1.884 0.437,-2.782 0.29,-0.898 0.725,-1.695 1.307,-2.39 0.581,-0.696 1.293,-1.253 2.136,-1.674 0.843,-0.42 1.831,-0.63 2.964,-0.63 1.046,0 1.998,0.203 2.855,0.608 0.857,0.407 1.591,0.95 2.201,1.63 0.611,0.681 1.082,1.471 1.417,2.369 0.333,0.898 0.501,1.84 0.501,2.826 0,0.984 -0.168,1.926 -0.501,2.824 C 12.982,3.679 12.511,4.476 11.9,5.171 11.29,5.867 10.556,6.417 9.699,6.823 8.842,7.229 7.89,7.432 6.844,7.432 5.711,7.432 4.723,7.229 3.88,6.823 3.037,6.417 2.325,5.867 1.744,5.171 1.162,4.476 0.727,3.679 0.437,2.781 0.146,1.883 0,0.956 0,0 m 13.601,-7.083 c -0.786,-1.25 -1.853,-2.202 -3.205,-2.855 -1.351,-0.654 -2.767,-0.981 -4.25,-0.981 -1.598,0 -3.037,0.283 -4.315,0.85 -1.279,0.567 -2.369,1.343 -3.269,2.332 -0.901,0.987 -1.598,2.15 -2.092,3.487 -0.494,1.336 -0.741,2.76 -0.741,4.271 0,1.511 0.247,2.928 0.741,4.25 0.494,1.323 1.198,2.478 2.114,3.466 0.915,0.988 2.012,1.758 3.291,2.31 1.278,0.552 2.687,0.828 4.228,0.828 1.685,0 3.153,-0.356 4.403,-1.067 1.249,-0.713 2.237,-1.577 2.964,-2.594 h 0.087 v 15.387 h 4.097 v -32.954 h -3.966 v 3.27 z" /></g><path
           id="path110"
           style="fill:#231f20;fill-opacity:1;fill-rule:nonzero;stroke:none"
           d="M 440.752,214.048 H 430.64 v 3.444 h 10.112 z" /><g
           transform="translate(449.0771,215.5083)"
           id="g112"><path
             id="path114"
             style="fill:#231f20;fill-opacity:1;fill-rule:nonzero;stroke:none"
             d="m 0,0 c 0,-0.957 0.146,-1.884 0.437,-2.782 0.29,-0.898 0.725,-1.695 1.307,-2.39 0.581,-0.696 1.293,-1.253 2.136,-1.674 0.843,-0.42 1.831,-0.63 2.964,-0.63 1.046,0 1.998,0.203 2.855,0.608 0.857,0.407 1.591,0.95 2.201,1.63 0.611,0.681 1.082,1.471 1.417,2.369 0.333,0.898 0.501,1.84 0.501,2.826 0,0.984 -0.168,1.926 -0.501,2.824 C 12.982,3.679 12.511,4.476 11.9,5.171 11.29,5.867 10.556,6.417 9.699,6.823 8.842,7.229 7.89,7.432 6.844,7.432 5.711,7.432 4.723,7.229 3.88,6.823 3.037,6.417 2.325,5.867 1.744,5.171 1.162,4.476 0.727,3.679 0.437,2.781 0.146,1.883 0,0.956 0,0 m 13.601,-7.083 c -0.786,-1.25 -1.853,-2.202 -3.205,-2.855 -1.351,-0.654 -2.767,-0.981 -4.25,-0.981 -1.598,0 -3.037,0.283 -4.315,0.85 -1.279,0.567 -2.369,1.343 -3.269,2.332 -0.901,0.987 -1.598,2.15 -2.092,3.487 -0.494,1.336 -0.741,2.76 -0.741,4.271 0,1.511 0.247,2.928 0.741,4.25 0.494,1.323 1.198,2.478 2.114,3.466 0.915,0.988 2.012,1.758 3.291,2.31 1.278,0.552 2.687,0.828 4.228,0.828 1.685,0 3.153,-0.356 4.403,-1.067 1.249,-0.713 2.237,-1.577 2.964,-2.594 h 0.087 v 15.387 h 4.097 v -32.954 h -3.966 v 3.27 z" /></g><g
           transform="translate(485.7354,215.0068)"
           id="g116"><path
             id="path118"
             style="fill:#231f20;fill-opacity:1;fill-rule:nonzero;stroke:none"
             d="m 0,0 c -1.018,0 -2.07,-0.043 -3.16,-0.131 -1.09,-0.087 -2.078,-0.261 -2.964,-0.523 -0.887,-0.261 -1.62,-0.654 -2.201,-1.177 -0.582,-0.523 -0.872,-1.22 -0.872,-2.092 0,-0.61 0.123,-1.119 0.371,-1.526 0.246,-0.407 0.573,-0.74 0.98,-1.002 0.407,-0.261 0.857,-0.444 1.352,-0.545 0.493,-0.102 1.002,-0.152 1.525,-0.152 1.918,0 3.393,0.573 4.424,1.721 1.031,1.148 1.548,2.594 1.548,4.337 l 0,1.09 z m 1.003,3.531 c 0,1.54 -0.465,2.68 -1.395,3.422 -0.93,0.741 -2.166,1.111 -3.705,1.111 -1.163,0 -2.259,-0.225 -3.291,-0.675 C -8.42,6.937 -9.284,6.364 -9.981,5.667 l -2.18,2.615 c 1.016,0.959 2.259,1.715 3.726,2.267 1.468,0.552 3.044,0.828 4.73,0.828 1.482,0 2.768,-0.211 3.858,-0.632 C 1.242,10.323 2.136,9.749 2.834,9.023 3.531,8.296 4.054,7.439 4.403,6.451 4.752,5.463 4.926,4.403 4.926,3.27 v -9.024 c 0,-0.697 0.021,-1.432 0.065,-2.201 0.044,-0.77 0.123,-1.402 0.24,-1.896 H 1.526 c -0.233,0.988 -0.349,1.976 -0.349,2.964 h -0.13 c -0.757,-1.105 -1.708,-1.962 -2.856,-2.572 -1.148,-0.61 -2.506,-0.915 -4.075,-0.915 -0.814,0 -1.664,0.109 -2.551,0.327 -0.886,0.218 -1.692,0.573 -2.419,1.068 -0.726,0.494 -1.329,1.147 -1.808,1.961 -0.48,0.813 -0.72,1.816 -0.72,3.008 0,1.569 0.421,2.811 1.265,3.727 0.842,0.915 1.946,1.613 3.312,2.092 1.366,0.48 2.906,0.792 4.62,0.937 1.715,0.145 3.445,0.218 5.188,0.218 z" /></g><g
           transform="translate(507.1816,222.4609)"
           id="g120"><path
             id="path122"
             style="fill:#231f20;fill-opacity:1;fill-rule:nonzero;stroke:none"
             d="m 0,0 h -5.492 v -10.734 c 0,-1.246 0.232,-2.137 0.697,-2.673 0.465,-0.536 1.205,-0.803 2.223,-0.803 0.378,0 0.785,0.039 1.22,0.12 0.437,0.079 0.829,0.199 1.177,0.359 l 0.131,-3.356 c -0.494,-0.175 -1.039,-0.312 -1.635,-0.414 -0.595,-0.102 -1.213,-0.153 -1.852,-0.153 -1.948,0 -3.437,0.537 -4.468,1.613 -1.031,1.075 -1.547,2.687 -1.547,4.838 V 0 h -3.967 v 3.356 h 3.967 v 5.928 h 4.054 V 3.356 l 5.492,0 z" /></g><g
           transform="translate(523.2656,215.0068)"
           id="g124"><path
             id="path126"
             style="fill:#231f20;fill-opacity:1;fill-rule:nonzero;stroke:none"
             d="m 0,0 c -1.018,0 -2.07,-0.043 -3.16,-0.131 -1.09,-0.087 -2.078,-0.261 -2.964,-0.523 -0.887,-0.261 -1.62,-0.654 -2.201,-1.177 -0.582,-0.523 -0.872,-1.22 -0.872,-2.092 0,-0.61 0.123,-1.119 0.371,-1.526 0.246,-0.407 0.573,-0.74 0.98,-1.002 0.407,-0.261 0.857,-0.444 1.352,-0.545 0.493,-0.102 1.002,-0.152 1.525,-0.152 1.918,0 3.393,0.573 4.424,1.721 1.031,1.148 1.548,2.594 1.548,4.337 l 0,1.09 z m 1.003,3.531 c 0,1.54 -0.465,2.68 -1.395,3.422 -0.93,0.741 -2.166,1.111 -3.705,1.111 -1.163,0 -2.259,-0.225 -3.291,-0.675 C -8.42,6.937 -9.284,6.364 -9.981,5.667 l -2.18,2.615 c 1.016,0.959 2.259,1.715 3.726,2.267 1.468,0.552 3.044,0.828 4.73,0.828 1.482,0 2.768,-0.211 3.858,-0.632 C 1.242,10.323 2.136,9.749 2.834,9.023 3.531,8.296 4.054,7.439 4.403,6.451 4.752,5.463 4.926,4.403 4.926,3.27 v -9.024 c 0,-0.697 0.021,-1.432 0.065,-2.201 0.044,-0.77 0.123,-1.402 0.24,-1.896 H 1.526 c -0.233,0.988 -0.349,1.976 -0.349,2.964 h -0.13 c -0.757,-1.105 -1.708,-1.962 -2.856,-2.572 -1.148,-0.61 -2.506,-0.915 -4.075,-0.915 -0.814,0 -1.664,0.109 -2.551,0.327 -0.886,0.218 -1.692,0.573 -2.419,1.068 -0.726,0.494 -1.329,1.147 -1.808,1.961 -0.48,0.813 -0.72,1.816 -0.72,3.008 0,1.569 0.421,2.811 1.265,3.727 0.842,0.915 1.946,1.613 3.312,2.092 1.366,0.48 2.906,0.792 4.62,0.937 1.715,0.145 3.445,0.218 5.188,0.218 z" /></g><g
           transform="translate(307.9375,180.0381)"
           id="g128"><path
             id="path130"
             style="fill:#231f20;fill-opacity:1;fill-rule:nonzero;stroke:none"
             d="m 0,0 -3.924,-10.592 h 7.76 z m 8.281,-22.623 -2.397,6.059 H -6.06 l -2.266,-6.059 h -8.108 L -3.487,8.238 h 7.235 l 12.815,-30.861 z" /></g><g
           transform="translate(334.1348,174.6328)"
           id="g132"><path
             id="path134"
             style="fill:#231f20;fill-opacity:1;fill-rule:nonzero;stroke:none"
             d="m 0,0 h 4.576 c 1.047,0 2.013,0.094 2.9,0.283 0.885,0.189 1.648,0.48 2.288,0.872 0.638,0.392 1.132,0.908 1.482,1.548 0.349,0.638 0.523,1.423 0.523,2.353 0,0.93 -0.182,1.707 -0.545,2.332 C 10.86,8.013 10.366,8.522 9.742,8.914 9.116,9.306 8.369,9.582 7.497,9.742 6.625,9.902 5.681,9.982 4.664,9.982 H 0 Z M -4.315,13.644 H 5.1 c 1.656,0 3.167,-0.168 4.533,-0.502 1.365,-0.334 2.528,-0.85 3.487,-1.547 0.959,-0.698 1.7,-1.584 2.223,-2.659 0.523,-1.076 0.785,-2.369 0.785,-3.88 0,-1.54 -0.283,-2.862 -0.851,-3.966 -0.566,-1.105 -1.35,-2.006 -2.353,-2.703 C 11.921,-2.31 10.729,-2.827 9.35,-3.16 7.969,-3.495 6.479,-3.662 4.882,-3.662 H 0 v -13.556 h -4.315 z" /></g><path
           id="path136"
           style="fill:#231f20;fill-opacity:1;fill-rule:nonzero;stroke:none"
           d="m 360.069,157.415 h -4.315 v 30.861 h 4.315 z" /><g
           transform="translate(387.9658,174.7202)"
           id="g138"><path
             id="path140"
             style="fill:#231f20;fill-opacity:1;fill-rule:nonzero;stroke:none"
             d="M 0,0 H -4.795 V -17.305 H -8.892 V 0 h -4.097 v 3.356 h 4.097 v 4.315 c 0,1.221 0.137,2.347 0.414,3.379 0.276,1.031 0.726,1.925 1.351,2.68 0.625,0.756 1.424,1.352 2.398,1.788 0.973,0.436 2.158,0.653 3.552,0.653 0.988,0 1.845,-0.102 2.573,-0.305 l -0.48,-3.531 c -0.32,0.088 -0.64,0.16 -0.959,0.219 -0.32,0.057 -0.684,0.087 -1.09,0.087 -0.785,0 -1.417,-0.139 -1.896,-0.414 C -3.509,11.95 -3.879,11.58 -4.141,11.115 -4.402,10.65 -4.577,10.119 -4.664,9.524 -4.751,8.928 -4.795,8.311 -4.795,7.671 V 3.356 H 0 Z" /></g><g
           transform="translate(408.4092,167.7676)"
           id="g142"><path
             id="path144"
             style="fill:#231f20;fill-opacity:1;fill-rule:nonzero;stroke:none"
             d="m 0,0 c 0,0.985 -0.153,1.927 -0.459,2.825 -0.307,0.898 -0.75,1.687 -1.333,2.368 -0.583,0.682 -1.306,1.224 -2.165,1.63 -0.86,0.406 -1.844,0.609 -2.951,0.609 -1.109,0 -2.093,-0.203 -2.952,-0.609 -0.861,-0.406 -1.582,-0.948 -2.165,-1.63 -0.583,-0.681 -1.028,-1.47 -1.333,-2.368 -0.307,-0.898 -0.459,-1.84 -0.459,-2.825 0,-0.985 0.152,-1.928 0.459,-2.825 0.305,-0.899 0.75,-1.696 1.333,-2.391 0.583,-0.695 1.304,-1.245 2.165,-1.652 0.859,-0.405 1.843,-0.608 2.952,-0.608 1.107,0 2.091,0.203 2.951,0.608 0.859,0.407 1.582,0.957 2.165,1.652 0.583,0.695 1.026,1.492 1.333,2.391 C -0.153,-1.928 0,-0.985 0,0 m 4.272,0.021 c 0,-1.598 -0.284,-3.065 -0.85,-4.402 C 2.855,-5.718 2.07,-6.873 1.068,-7.846 0.065,-8.82 -1.119,-9.575 -2.484,-10.113 c -1.367,-0.537 -2.833,-0.806 -4.403,-0.806 -1.569,0 -3.037,0.269 -4.402,0.806 -1.366,0.538 -2.544,1.293 -3.531,2.267 -0.989,0.973 -1.766,2.128 -2.332,3.465 -0.567,1.337 -0.85,2.804 -0.85,4.402 0,1.599 0.283,3.059 0.85,4.381 0.566,1.323 1.343,2.463 2.332,3.422 0.987,0.959 2.165,1.707 3.531,2.245 1.365,0.537 2.833,0.806 4.402,0.806 1.57,0 3.036,-0.269 4.403,-0.806 C -1.119,9.531 0.065,8.783 1.068,7.824 2.07,6.865 2.855,5.725 3.422,4.402 3.988,3.08 4.272,1.62 4.272,0.021" /></g><g
           transform="translate(418.3037,175.7661)"
           id="g146"><path
             id="path148"
             style="fill:#231f20;fill-opacity:1;fill-rule:nonzero;stroke:none"
             d="M 0,0 C -0.029,0.872 -0.073,1.642 -0.131,2.31 H 3.748 C 3.807,1.787 3.85,1.184 3.879,0.501 3.908,-0.182 3.923,-0.741 3.923,-1.177 h 0.131 c 0.581,1.22 1.43,2.201 2.55,2.943 1.118,0.74 2.375,1.111 3.77,1.111 0.639,0 1.177,-0.059 1.613,-0.174 L 11.813,-1.09 C 11.23,-0.945 10.606,-0.872 9.938,-0.872 8.95,-0.872 8.093,-1.054 7.366,-1.417 6.64,-1.78 6.037,-2.267 5.558,-2.877 5.078,-3.487 4.722,-4.192 4.489,-4.991 4.257,-5.791 4.141,-6.625 4.141,-7.498 V -18.351 H 0.043 V -2.136 C 0.043,-1.584 0.028,-0.872 0,0" /></g><g
           transform="translate(314.9111,109.6743)"
           id="g150"><path
             id="path152"
             style="fill:#231f20;fill-opacity:1;fill-rule:nonzero;stroke:none"
             d="m 0,0 -12.423,20.182 h -0.131 L -12.379,0 h -7.236 v 30.861 h 8.5 L 1.265,10.723 H 1.396 L 1.221,30.861 H 8.457 L 8.457,0 Z" /></g><g
           transform="translate(346.2959,121.8359)"
           id="g154"><path
             id="path156"
             style="fill:#231f20;fill-opacity:1;fill-rule:nonzero;stroke:none"
             d="M 0,0 C -0.029,0.813 -0.168,1.576 -0.414,2.288 -0.661,3 -1.024,3.618 -1.504,4.141 -1.983,4.664 -2.579,5.078 -3.291,5.383 -4.003,5.688 -4.839,5.841 -5.798,5.841 -6.669,5.841 -7.49,5.688 -8.26,5.383 -9.03,5.078 -9.698,4.664 -10.266,4.141 -10.832,3.618 -11.297,3 -11.66,2.288 -12.023,1.576 -12.234,0.813 -12.292,0 Z m 4.185,-1.657 v -0.697 c 0,-0.233 -0.015,-0.465 -0.044,-0.697 h -16.433 c 0.028,-0.867 0.225,-1.682 0.588,-2.446 0.363,-0.765 0.85,-1.429 1.461,-1.992 0.61,-0.562 1.314,-1.002 2.113,-1.32 0.8,-0.317 1.65,-0.476 2.551,-0.476 1.394,0 2.6,0.306 3.617,0.916 1.018,0.61 1.816,1.351 2.398,2.223 l 2.877,-2.311 c -1.105,-1.464 -2.405,-2.542 -3.902,-3.234 -1.497,-0.691 -3.16,-1.038 -4.99,-1.038 -1.569,0 -3.024,0.262 -4.359,0.785 -1.337,0.524 -2.485,1.257 -3.444,2.202 -0.959,0.944 -1.715,2.084 -2.266,3.421 -0.553,1.337 -0.829,2.819 -0.829,4.446 0,1.598 0.269,3.074 0.808,4.425 0.539,1.351 1.288,2.506 2.25,3.465 0.961,0.959 2.097,1.707 3.407,2.245 1.311,0.537 2.722,0.806 4.237,0.806 1.514,0 2.89,-0.247 4.129,-0.741 C -0.409,7.831 0.639,7.119 1.498,6.189 2.357,5.259 3.02,4.133 3.485,2.812 3.951,1.489 4.185,0 4.185,-1.657" /></g><g
           transform="translate(366.2598,126.9795)"
           id="g158"><path
             id="path160"
             style="fill:#231f20;fill-opacity:1;fill-rule:nonzero;stroke:none"
             d="m 0,0 h -5.492 v -10.734 c 0,-1.246 0.232,-2.137 0.697,-2.673 0.465,-0.536 1.205,-0.803 2.223,-0.803 0.378,0 0.785,0.039 1.22,0.12 0.437,0.079 0.829,0.199 1.177,0.359 l 0.131,-3.356 c -0.494,-0.175 -1.039,-0.312 -1.635,-0.414 -0.595,-0.102 -1.213,-0.153 -1.852,-0.153 -1.948,0 -3.437,0.537 -4.468,1.613 -1.031,1.075 -1.547,2.687 -1.547,4.838 V 0 h -3.967 v 3.356 h 3.967 v 5.928 h 4.054 V 3.356 l 5.492,0 z" /></g><g
           transform="translate(372.0137,130.3354)"
           id="g162"><path
             id="path164"
             style="fill:#231f20;fill-opacity:1;fill-rule:nonzero;stroke:none"
             d="M 0,0 4.664,-15.779 H 4.751 L 9.677,0 h 4.315 l 5.013,-15.779 h 0.087 L 23.756,0 h 4.315 l -6.843,-20.661 h -4.272 l -5.1,15.517 H 11.769 L 6.713,-20.661 H 2.44 L -4.446,0 Z" /></g><g
           transform="translate(420.833,120.0269)"
           id="g166"><path
             id="path168"
             style="fill:#231f20;fill-opacity:1;fill-rule:nonzero;stroke:none"
             d="m 0,0 c 0,0.985 -0.153,1.927 -0.459,2.825 -0.307,0.898 -0.75,1.687 -1.333,2.368 -0.583,0.682 -1.306,1.224 -2.165,1.63 -0.86,0.406 -1.844,0.609 -2.951,0.609 -1.109,0 -2.093,-0.203 -2.952,-0.609 -0.861,-0.406 -1.582,-0.948 -2.165,-1.63 -0.583,-0.681 -1.028,-1.47 -1.333,-2.368 -0.307,-0.898 -0.459,-1.84 -0.459,-2.825 0,-0.985 0.152,-1.928 0.459,-2.825 0.305,-0.899 0.75,-1.696 1.333,-2.391 0.583,-0.695 1.304,-1.245 2.165,-1.652 0.859,-0.405 1.843,-0.608 2.952,-0.608 1.107,0 2.091,0.203 2.951,0.608 0.859,0.407 1.582,0.957 2.165,1.652 0.583,0.695 1.026,1.492 1.333,2.391 C -0.153,-1.928 0,-0.985 0,0 m 4.272,0.021 c 0,-1.598 -0.284,-3.065 -0.85,-4.402 C 2.855,-5.718 2.07,-6.873 1.068,-7.846 0.065,-8.82 -1.119,-9.575 -2.484,-10.113 c -1.367,-0.537 -2.833,-0.806 -4.403,-0.806 -1.569,0 -3.037,0.269 -4.402,0.806 -1.366,0.538 -2.544,1.293 -3.531,2.267 -0.989,0.973 -1.766,2.128 -2.332,3.465 -0.567,1.337 -0.85,2.804 -0.85,4.402 0,1.599 0.283,3.059 0.85,4.381 0.566,1.323 1.343,2.463 2.332,3.422 0.987,0.959 2.165,1.707 3.531,2.245 1.365,0.537 2.833,0.806 4.402,0.806 1.57,0 3.036,-0.269 4.403,-0.806 C -1.119,9.531 0.065,8.783 1.068,7.824 2.07,6.865 2.855,5.725 3.422,4.402 3.988,3.08 4.272,1.62 4.272,0.021" /></g><g
           transform="translate(430.7275,128.0254)"
           id="g170"><path
             id="path172"
             style="fill:#231f20;fill-opacity:1;fill-rule:nonzero;stroke:none"
             d="M 0,0 C -0.029,0.872 -0.073,1.642 -0.131,2.31 H 3.748 C 3.807,1.787 3.85,1.184 3.879,0.501 3.908,-0.182 3.923,-0.741 3.923,-1.177 h 0.131 c 0.581,1.22 1.43,2.201 2.55,2.943 1.118,0.74 2.375,1.111 3.77,1.111 0.639,0 1.177,-0.059 1.613,-0.174 L 11.813,-1.09 C 11.23,-0.945 10.606,-0.872 9.938,-0.872 8.95,-0.872 8.093,-1.054 7.366,-1.417 6.64,-1.78 6.037,-2.267 5.558,-2.877 5.078,-3.487 4.722,-4.192 4.489,-4.991 4.257,-5.791 4.141,-6.625 4.141,-7.498 V -18.351 H 0.043 V -2.136 C 0.043,-1.584 0.028,-0.872 0,0" /></g><g
           transform="translate(450.7344,121.3564)"
           id="g174"><path
             id="path176"
             style="fill:#231f20;fill-opacity:1;fill-rule:nonzero;stroke:none"
             d="m 0,0 h 0.131 l 8.675,8.979 h 5.492 L 4.621,-0.393 15.126,-11.682 H 9.459 L 0.131,-0.959 H 0 V -11.682 H -4.097 V 21.271 H 0 Z" /></g><g
           transform="translate(483.8623,121.8359)"
           id="g178"><path
             id="path180"
             style="fill:#231f20;fill-opacity:1;fill-rule:nonzero;stroke:none"
             d="M 0,0 C -0.029,0.813 -0.168,1.576 -0.414,2.288 -0.661,3 -1.024,3.618 -1.504,4.141 -1.983,4.664 -2.579,5.078 -3.291,5.383 -4.003,5.688 -4.839,5.841 -5.798,5.841 -6.669,5.841 -7.49,5.688 -8.26,5.383 -9.03,5.078 -9.698,4.664 -10.266,4.141 -10.832,3.618 -11.297,3 -11.66,2.288 -12.023,1.576 -12.234,0.813 -12.292,0 Z m 4.185,-1.657 v -0.697 c 0,-0.233 -0.015,-0.465 -0.044,-0.697 h -16.433 c 0.028,-0.867 0.225,-1.682 0.588,-2.446 0.363,-0.765 0.85,-1.429 1.461,-1.992 0.61,-0.562 1.314,-1.002 2.113,-1.32 0.8,-0.317 1.65,-0.476 2.551,-0.476 1.394,0 2.6,0.306 3.617,0.916 1.018,0.61 1.816,1.351 2.398,2.223 l 2.877,-2.311 c -1.105,-1.464 -2.405,-2.542 -3.902,-3.234 -1.497,-0.691 -3.16,-1.038 -4.99,-1.038 -1.569,0 -3.024,0.262 -4.359,0.785 -1.337,0.524 -2.485,1.257 -3.444,2.202 -0.959,0.944 -1.715,2.084 -2.266,3.421 -0.553,1.337 -0.829,2.819 -0.829,4.446 0,1.598 0.269,3.074 0.808,4.425 0.539,1.351 1.288,2.506 2.25,3.465 0.961,0.959 2.097,1.707 3.407,2.245 1.311,0.537 2.722,0.806 4.237,0.806 1.514,0 2.89,-0.247 4.129,-0.741 C -0.409,7.831 0.639,7.119 1.498,6.189 2.357,5.259 3.02,4.133 3.485,2.812 3.951,1.489 4.185,0 4.185,-1.657" /></g><g
           transform="translate(496.5898,120.0269)"
           id="g182"><path
             id="path184"
             style="fill:#231f20;fill-opacity:1;fill-rule:nonzero;stroke:none"
             d="m 0,0 c 0,-0.957 0.146,-1.884 0.437,-2.782 0.29,-0.898 0.725,-1.695 1.307,-2.39 0.581,-0.696 1.293,-1.253 2.136,-1.674 0.843,-0.42 1.831,-0.63 2.964,-0.63 1.046,0 1.998,0.203 2.855,0.608 0.857,0.407 1.591,0.95 2.201,1.63 0.611,0.681 1.082,1.471 1.417,2.369 0.333,0.898 0.501,1.84 0.501,2.826 0,0.984 -0.168,1.926 -0.501,2.824 C 12.982,3.679 12.511,4.476 11.9,5.171 11.29,5.867 10.556,6.417 9.699,6.823 8.842,7.229 7.89,7.432 6.844,7.432 5.711,7.432 4.723,7.229 3.88,6.823 3.037,6.417 2.325,5.867 1.744,5.171 1.162,4.476 0.727,3.679 0.437,2.781 0.146,1.883 0,0.956 0,0 m 13.601,-7.083 c -0.786,-1.25 -1.853,-2.202 -3.205,-2.855 -1.351,-0.654 -2.767,-0.981 -4.25,-0.981 -1.598,0 -3.037,0.283 -4.315,0.85 -1.279,0.567 -2.369,1.343 -3.269,2.332 -0.901,0.987 -1.598,2.15 -2.092,3.487 -0.494,1.336 -0.741,2.76 -0.741,4.271 0,1.511 0.247,2.928 0.741,4.25 0.494,1.323 1.198,2.478 2.114,3.466 0.915,0.988 2.012,1.758 3.291,2.31 1.278,0.552 2.687,0.828 4.228,0.828 1.685,0 3.153,-0.356 4.403,-1.067 1.249,-0.713 2.237,-1.577 2.964,-2.594 h 0.087 v 15.387 h 4.097 v -32.954 h -3.966 v 3.27 z" /></g><g
           transform="translate(316.3496,77.4512)"
           id="g186"><path
             id="path188"
             style="fill:#231f20;fill-opacity:1;fill-rule:nonzero;stroke:none"
             d="m 0,0 c 0,1.744 -0.283,3.189 -0.85,4.337 -0.566,1.148 -1.322,2.063 -2.266,2.746 -0.945,0.683 -2.021,1.17 -3.226,1.461 -1.206,0.29 -2.448,0.435 -3.726,0.435 h -3.705 V -9.066 h 3.53 c 1.336,0 2.622,0.152 3.857,0.457 1.236,0.305 2.325,0.807 3.27,1.504 0.944,0.698 1.7,1.627 2.266,2.79 C -0.283,-3.153 0,-1.715 0,0 m 7.759,0 c 0,-2.702 -0.501,-5.034 -1.503,-6.996 -1.003,-1.962 -2.325,-3.574 -3.967,-4.838 -1.643,-1.265 -3.495,-2.194 -5.558,-2.79 -2.064,-0.596 -4.156,-0.894 -6.277,-0.894 h -11.508 v 30.862 h 11.159 c 2.18,0 4.331,-0.255 6.452,-0.763 2.121,-0.509 4.01,-1.352 5.667,-2.528 C 3.88,10.876 5.216,9.299 6.233,7.323 7.25,5.347 7.759,2.906 7.759,0" /></g><g
           transform="translate(345.249,83.3359)"
           id="g190"><path
             id="path192"
             style="fill:#231f20;fill-opacity:1;fill-rule:nonzero;stroke:none"
             d="m 0,0 c 0,0.726 -0.154,1.314 -0.461,1.766 -0.307,0.45 -0.7,0.798 -1.182,1.046 -0.482,0.246 -1.022,0.414 -1.621,0.501 -0.598,0.087 -1.175,0.13 -1.73,0.13 h -3.985 v -7.192 h 3.547 c 0.613,0 1.242,0.051 1.884,0.153 0.643,0.101 1.226,0.283 1.752,0.545 0.525,0.261 0.956,0.638 1.292,1.133 C -0.168,-1.424 0,-0.785 0,0 m 0.305,-21.402 -6.701,12.248 h -2.54 v -12.248 h -7.28 V 9.459 h 11.77 c 1.482,0 2.927,-0.153 4.337,-0.458 C 1.3,8.696 2.564,8.18 3.683,7.454 4.802,6.727 5.695,5.768 6.364,4.577 7.032,3.385 7.366,1.903 7.366,0.131 7.366,-1.961 6.8,-3.72 5.666,-5.144 4.533,-6.568 2.964,-7.584 0.959,-8.195 l 8.063,-13.207 z" /></g><g
           transform="translate(376.0225,72.2861)"
           id="g194"><path
             id="path196"
             style="fill:#231f20;fill-opacity:1;fill-rule:nonzero;stroke:none"
             d="m 0,0 c 0,0.985 -0.153,1.927 -0.459,2.825 -0.307,0.898 -0.75,1.687 -1.333,2.368 -0.583,0.682 -1.306,1.224 -2.165,1.63 -0.86,0.406 -1.844,0.609 -2.951,0.609 -1.109,0 -2.093,-0.203 -2.952,-0.609 -0.861,-0.406 -1.582,-0.948 -2.165,-1.63 -0.583,-0.681 -1.028,-1.47 -1.333,-2.368 -0.307,-0.898 -0.459,-1.84 -0.459,-2.825 0,-0.985 0.152,-1.928 0.459,-2.825 0.305,-0.899 0.75,-1.696 1.333,-2.391 0.583,-0.695 1.304,-1.246 2.165,-1.651 0.859,-0.406 1.843,-0.609 2.952,-0.609 1.107,0 2.091,0.203 2.951,0.609 0.859,0.405 1.582,0.956 2.165,1.651 0.583,0.695 1.026,1.492 1.333,2.391 C -0.153,-1.928 0,-0.985 0,0 m 4.272,0.021 c 0,-1.598 -0.284,-3.065 -0.85,-4.402 C 2.855,-5.718 2.07,-6.873 1.068,-7.846 0.065,-8.82 -1.119,-9.575 -2.484,-10.113 c -1.367,-0.537 -2.833,-0.806 -4.403,-0.806 -1.569,0 -3.037,0.269 -4.402,0.806 -1.366,0.538 -2.544,1.293 -3.531,2.267 -0.989,0.973 -1.766,2.128 -2.332,3.465 -0.567,1.337 -0.85,2.804 -0.85,4.402 0,1.599 0.283,3.059 0.85,4.381 0.566,1.323 1.343,2.463 2.332,3.422 0.987,0.959 2.165,1.707 3.531,2.245 1.365,0.537 2.833,0.806 4.402,0.806 1.57,0 3.036,-0.269 4.403,-0.806 C -1.119,9.531 0.065,8.783 1.068,7.824 2.07,6.865 2.855,5.725 3.422,4.402 3.988,3.08 4.272,1.62 4.272,0.021" /></g><g
           transform="translate(389.665,82.5947)"
           id="g198"><path
             id="path200"
             style="fill:#231f20;fill-opacity:1;fill-rule:nonzero;stroke:none"
             d="M 0,0 C 0.059,-0.523 0.102,-1.111 0.131,-1.765 0.16,-2.419 0.175,-2.964 0.175,-3.4 h 0.131 c 0.261,0.552 0.617,1.068 1.068,1.547 0.45,0.48 0.965,0.901 1.547,1.265 0.581,0.363 1.221,0.646 1.918,0.85 0.697,0.203 1.424,0.305 2.18,0.305 1.335,0 2.484,-0.226 3.443,-0.676 0.959,-0.451 1.758,-1.054 2.397,-1.808 0.639,-0.757 1.112,-1.643 1.417,-2.66 0.305,-1.017 0.457,-2.107 0.457,-3.269 v -12.815 h -4.096 v 11.464 c 0,0.843 -0.066,1.641 -0.197,2.397 -0.13,0.756 -0.371,1.424 -0.719,2.006 -0.349,0.58 -0.828,1.045 -1.439,1.394 -0.61,0.349 -1.394,0.524 -2.353,0.524 -1.628,0 -2.957,-0.619 -3.989,-1.853 C 0.908,-5.965 0.393,-7.614 0.393,-9.677 v -10.984 h -4.098 v 16.215 c 0,0.552 -0.015,1.264 -0.043,2.136 -0.029,0.872 -0.073,1.642 -0.131,2.31 z" /></g><g
           transform="translate(426.4541,74.0952)"
           id="g202"><path
             id="path204"
             style="fill:#231f20;fill-opacity:1;fill-rule:nonzero;stroke:none"
             d="M 0,0 C -0.029,0.813 -0.168,1.576 -0.414,2.288 -0.661,3 -1.024,3.618 -1.504,4.141 -1.983,4.664 -2.579,5.078 -3.291,5.383 -4.003,5.688 -4.839,5.841 -5.798,5.841 -6.669,5.841 -7.49,5.688 -8.26,5.383 -9.03,5.078 -9.698,4.664 -10.266,4.141 -10.832,3.618 -11.297,3 -11.66,2.288 -12.023,1.576 -12.234,0.813 -12.292,0 Z m 4.185,-1.657 v -0.697 c 0,-0.233 -0.015,-0.465 -0.044,-0.697 h -16.433 c 0.028,-0.867 0.225,-1.682 0.588,-2.446 0.363,-0.765 0.85,-1.429 1.461,-1.992 0.61,-0.562 1.314,-1.003 2.113,-1.32 0.8,-0.317 1.65,-0.476 2.551,-0.476 1.394,0 2.6,0.305 3.617,0.915 1.018,0.611 1.816,1.352 2.398,2.224 l 2.877,-2.311 c -1.105,-1.463 -2.405,-2.542 -3.902,-3.234 -1.497,-0.691 -3.16,-1.037 -4.99,-1.037 -1.569,0 -3.024,0.262 -4.359,0.784 -1.337,0.524 -2.485,1.257 -3.444,2.201 -0.959,0.945 -1.715,2.085 -2.266,3.422 -0.553,1.337 -0.829,2.819 -0.829,4.446 0,1.598 0.269,3.074 0.808,4.425 0.539,1.351 1.288,2.506 2.25,3.465 0.961,0.959 2.097,1.707 3.407,2.245 1.311,0.537 2.722,0.806 4.237,0.806 1.514,0 2.89,-0.247 4.129,-0.741 C -0.409,7.831 0.639,7.119 1.498,6.189 2.357,5.259 3.02,4.133 3.485,2.812 3.951,1.489 4.185,0 4.185,-1.657" /></g><g
           transform="translate(454.4385,84.7744)"
           id="g206"><path
             id="path208"
             style="fill:#231f20;fill-opacity:1;fill-rule:nonzero;stroke:none"
             d="M 0,0 C -0.64,0.813 -1.476,1.46 -2.506,1.94 -3.538,2.419 -4.533,2.659 -5.492,2.659 -5.986,2.659 -6.488,2.615 -6.996,2.528 -7.505,2.441 -7.963,2.273 -8.369,2.027 -8.776,1.78 -9.117,1.46 -9.394,1.068 -9.67,0.676 -9.808,0.174 -9.808,-0.436 c 0,-0.523 0.11,-0.959 0.328,-1.308 0.217,-0.348 0.537,-0.653 0.959,-0.915 0.42,-0.261 0.921,-0.501 1.503,-0.719 0.581,-0.218 1.235,-0.444 1.961,-0.676 1.047,-0.348 2.136,-0.734 3.27,-1.155 1.134,-0.421 2.164,-0.98 3.095,-1.678 0.929,-0.697 1.7,-1.563 2.31,-2.593 0.611,-1.033 0.915,-2.318 0.915,-3.858 0,-1.773 -0.327,-3.307 -0.98,-4.599 -0.655,-1.293 -1.533,-2.361 -2.638,-3.204 -1.104,-0.843 -2.368,-1.467 -3.792,-1.875 -1.424,-0.406 -2.892,-0.609 -4.402,-0.609 -2.209,0 -4.345,0.385 -6.408,1.154 -2.064,0.77 -3.778,1.867 -5.143,3.291 l 4.882,4.97 c 0.755,-0.931 1.75,-1.707 2.985,-2.332 1.235,-0.625 2.463,-0.937 3.684,-0.937 0.551,0 1.09,0.058 1.612,0.174 0.523,0.116 0.981,0.305 1.373,0.567 0.393,0.261 0.705,0.61 0.938,1.046 0.232,0.436 0.348,0.959 0.348,1.569 0,0.581 -0.145,1.075 -0.435,1.482 -0.291,0.407 -0.705,0.777 -1.243,1.112 -0.538,0.333 -1.206,0.638 -2.004,0.915 -0.8,0.276 -1.708,0.573 -2.725,0.894 -0.988,0.319 -1.955,0.697 -2.898,1.133 -0.946,0.436 -1.789,0.995 -2.529,1.678 -0.741,0.682 -1.337,1.511 -1.787,2.485 -0.451,0.973 -0.676,2.157 -0.676,3.552 0,1.714 0.349,3.182 1.046,4.403 0.697,1.22 1.613,2.223 2.746,3.008 1.134,0.784 2.412,1.357 3.836,1.721 1.424,0.363 2.863,0.545 4.316,0.545 1.743,0 3.523,-0.32 5.34,-0.959 C 1.794,7.207 3.385,6.262 4.751,5.013 Z" /></g></g></g></g></svg>